<mxfile host="app.diagrams.net" modified="2023-08-21T02:30:26.544Z" agent="Mozilla/5.0 (Windows NT 10.0; Win64; x64) AppleWebKit/537.36 (KHTML, like Gecko) Chrome/115.0.0.0 Safari/537.36" etag="Hw-s6UR6d_1QOButx4TO" version="21.6.8" type="device" pages="2">
  <diagram id="C5RBs43oDa-KdzZeNtuy" name="Page-1">
    <mxGraphModel dx="1623" dy="691" grid="1" gridSize="10" guides="1" tooltips="1" connect="1" arrows="1" fold="1" page="1" pageScale="1" pageWidth="827" pageHeight="1169" math="0" shadow="0">
      <root>
        <mxCell id="WIyWlLk6GJQsqaUBKTNV-0" />
        <mxCell id="WIyWlLk6GJQsqaUBKTNV-1" parent="WIyWlLk6GJQsqaUBKTNV-0" />
        <mxCell id="WoGnkU7w-7urDZS7QDXh-1" value="" style="edgeStyle=orthogonalEdgeStyle;rounded=1;orthogonalLoop=1;jettySize=auto;html=1;" parent="WIyWlLk6GJQsqaUBKTNV-1" source="WIyWlLk6GJQsqaUBKTNV-3" target="WoGnkU7w-7urDZS7QDXh-0" edge="1">
          <mxGeometry relative="1" as="geometry" />
        </mxCell>
        <mxCell id="WIyWlLk6GJQsqaUBKTNV-3" value="&lt;div&gt;&lt;div style=&quot;background-color: rgb(255, 255, 255); font-family: Consolas, &amp;quot;Courier New&amp;quot;, monospace; font-size: 14px; line-height: 19px;&quot;&gt;ar_game_archery_handle(&lt;span style=&quot;color: #267f99;&quot;&gt;ak_msg_t&lt;/span&gt;&lt;span style=&quot;color: #0000ff;&quot;&gt;*&lt;/span&gt; &lt;span style=&quot;color: #001080;&quot;&gt;msg&lt;/span&gt;)&lt;/div&gt;&lt;/div&gt;" style="rounded=1;whiteSpace=wrap;html=1;fontSize=12;glass=0;strokeWidth=1;shadow=0;" parent="WIyWlLk6GJQsqaUBKTNV-1" vertex="1">
          <mxGeometry x="191" y="305" width="310" height="70" as="geometry" />
        </mxCell>
        <mxCell id="WoGnkU7w-7urDZS7QDXh-0" value="" style="rounded=1;whiteSpace=wrap;html=1;fontSize=12;glass=0;strokeWidth=1;shadow=0;" parent="WIyWlLk6GJQsqaUBKTNV-1" vertex="1">
          <mxGeometry x="132" y="400" width="428" height="740" as="geometry" />
        </mxCell>
        <mxCell id="8Bc5X0JGQG7bx1Ke6ycb-5" value="" style="edgeStyle=orthogonalEdgeStyle;rounded=1;orthogonalLoop=1;jettySize=auto;html=1;exitX=-0.003;exitY=0.131;exitDx=0;exitDy=0;exitPerimeter=0;entryX=0;entryY=0.167;entryDx=0;entryDy=0;entryPerimeter=0;" parent="WIyWlLk6GJQsqaUBKTNV-1" source="WoGnkU7w-7urDZS7QDXh-2" target="WoGnkU7w-7urDZS7QDXh-7" edge="1">
          <mxGeometry relative="1" as="geometry">
            <mxPoint x="190" y="655" as="targetPoint" />
            <Array as="points">
              <mxPoint x="170" y="505" />
              <mxPoint x="170" y="655" />
            </Array>
          </mxGeometry>
        </mxCell>
        <mxCell id="WoGnkU7w-7urDZS7QDXh-2" value="&lt;div style=&quot;background-color: rgb(255, 255, 255); font-family: Consolas, &amp;quot;Courier New&amp;quot;, monospace; font-size: 14px; line-height: 19px;&quot;&gt;&lt;div style=&quot;line-height: 19px;&quot;&gt;AR_GAME_ARCHERY_SETUP&lt;/div&gt;&lt;/div&gt;" style="swimlane;fontStyle=0;childLayout=stackLayout;horizontal=1;startSize=30;horizontalStack=0;resizeParent=1;resizeParentMax=0;resizeLast=0;collapsible=1;marginBottom=0;whiteSpace=wrap;html=1;rounded=1;" parent="WIyWlLk6GJQsqaUBKTNV-1" vertex="1">
          <mxGeometry x="200" y="485" width="310" height="150" as="geometry" />
        </mxCell>
        <mxCell id="WoGnkU7w-7urDZS7QDXh-3" value="&lt;div style=&quot;background-color: rgb(255, 255, 255); font-family: Consolas, &amp;quot;Courier New&amp;quot;, monospace; font-size: 14px; line-height: 19px;&quot;&gt;archery&lt;span style=&quot;color: #0000ff;&quot;&gt;.&lt;/span&gt;&lt;span style=&quot;color: #001080;&quot;&gt;x&lt;/span&gt;&lt;span style=&quot;color: #0000ff;&quot;&gt; &lt;/span&gt;=&lt;span style=&quot;color: #0000ff;&quot;&gt; &lt;/span&gt;&lt;span style=&quot;color: #0000ff;&quot;&gt;AXIS_X_ARCHERY&lt;/span&gt;&lt;span style=&quot;color: #0000ff;&quot;&gt;;&lt;/span&gt;&lt;/div&gt;" style="text;strokeColor=none;fillColor=none;align=left;verticalAlign=middle;spacingLeft=4;spacingRight=4;overflow=hidden;points=[[0,0.5],[1,0.5]];portConstraint=eastwest;rotatable=0;whiteSpace=wrap;html=1;rounded=1;" parent="WoGnkU7w-7urDZS7QDXh-2" vertex="1">
          <mxGeometry y="30" width="310" height="30" as="geometry" />
        </mxCell>
        <mxCell id="WoGnkU7w-7urDZS7QDXh-4" value="&lt;div style=&quot;background-color: rgb(255, 255, 255); font-family: Consolas, &amp;quot;Courier New&amp;quot;, monospace; font-size: 14px; line-height: 19px;&quot;&gt;archery&lt;span style=&quot;color: #0000ff;&quot;&gt;.&lt;/span&gt;&lt;span style=&quot;color: #001080;&quot;&gt;y&lt;/span&gt;&lt;span style=&quot;color: #0000ff;&quot;&gt; &lt;/span&gt;=&lt;span style=&quot;color: #0000ff;&quot;&gt; &lt;/span&gt;&lt;span style=&quot;color: #0000ff;&quot;&gt;AXIS_Y_ARCHERY&lt;/span&gt;&lt;span style=&quot;color: #0000ff;&quot;&gt;;&lt;/span&gt;&lt;/div&gt;" style="text;strokeColor=none;fillColor=none;align=left;verticalAlign=middle;spacingLeft=4;spacingRight=4;overflow=hidden;points=[[0,0.5],[1,0.5]];portConstraint=eastwest;rotatable=0;whiteSpace=wrap;html=1;rounded=1;" parent="WoGnkU7w-7urDZS7QDXh-2" vertex="1">
          <mxGeometry y="60" width="310" height="30" as="geometry" />
        </mxCell>
        <mxCell id="WoGnkU7w-7urDZS7QDXh-5" value="&lt;div style=&quot;background-color: rgb(255, 255, 255); font-family: Consolas, &amp;quot;Courier New&amp;quot;, monospace; font-size: 14px; line-height: 19px;&quot;&gt;&lt;div style=&quot;line-height: 19px;&quot;&gt;archery&lt;span style=&quot;color: #0000ff;&quot;&gt;.&lt;/span&gt;&lt;span style=&quot;color: #001080;&quot;&gt;visible&lt;/span&gt;&lt;span style=&quot;color: #0000ff;&quot;&gt; &lt;/span&gt;=&lt;span style=&quot;color: #0000ff;&quot;&gt; &lt;/span&gt;&lt;span style=&quot;color: #0000ff;&quot;&gt;WHITE&lt;/span&gt;&lt;span style=&quot;color: #0000ff;&quot;&gt;;&lt;/span&gt;&lt;/div&gt;&lt;/div&gt;" style="text;strokeColor=none;fillColor=none;align=left;verticalAlign=middle;spacingLeft=4;spacingRight=4;overflow=hidden;points=[[0,0.5],[1,0.5]];portConstraint=eastwest;rotatable=0;whiteSpace=wrap;html=1;rounded=1;" parent="WoGnkU7w-7urDZS7QDXh-2" vertex="1">
          <mxGeometry y="90" width="310" height="30" as="geometry" />
        </mxCell>
        <mxCell id="WoGnkU7w-7urDZS7QDXh-6" value="&lt;div style=&quot;background-color: rgb(255, 255, 255); font-family: Consolas, &amp;quot;Courier New&amp;quot;, monospace; font-size: 14px; line-height: 19px;&quot;&gt;archery&lt;span style=&quot;color: #0000ff;&quot;&gt;.&lt;/span&gt;&lt;span style=&quot;color: #795e26;&quot;&gt;action_image&lt;/span&gt;&lt;span style=&quot;color: #0000ff;&quot;&gt; &lt;/span&gt;=&lt;span style=&quot;color: #0000ff;&quot;&gt; &lt;/span&gt;&lt;span style=&quot;color: #098658;&quot;&gt;1&lt;/span&gt;&lt;span style=&quot;color: #0000ff;&quot;&gt;;&lt;/span&gt;&lt;/div&gt;" style="text;strokeColor=none;fillColor=none;align=left;verticalAlign=middle;spacingLeft=4;spacingRight=4;overflow=hidden;points=[[0,0.5],[1,0.5]];portConstraint=eastwest;rotatable=0;whiteSpace=wrap;html=1;rounded=1;" parent="WoGnkU7w-7urDZS7QDXh-2" vertex="1">
          <mxGeometry y="120" width="310" height="30" as="geometry" />
        </mxCell>
        <mxCell id="WoGnkU7w-7urDZS7QDXh-7" value="&lt;div style=&quot;background-color: rgb(255, 255, 255); font-family: Consolas, &amp;quot;Courier New&amp;quot;, monospace; font-size: 14px; line-height: 19px;&quot;&gt;&lt;div style=&quot;line-height: 19px;&quot;&gt;&lt;div style=&quot;line-height: 19px;&quot;&gt;AR_GAME_ARCHERY_UPDATE&lt;/div&gt;&lt;/div&gt;&lt;/div&gt;" style="swimlane;fontStyle=0;childLayout=stackLayout;horizontal=1;startSize=30;horizontalStack=0;resizeParent=1;resizeParentMax=0;resizeLast=0;collapsible=1;marginBottom=0;whiteSpace=wrap;html=1;rounded=1;" parent="WIyWlLk6GJQsqaUBKTNV-1" vertex="1">
          <mxGeometry x="200" y="645" width="310" height="60" as="geometry" />
        </mxCell>
        <mxCell id="WoGnkU7w-7urDZS7QDXh-8" value="&lt;div style=&quot;background-color: rgb(255, 255, 255); font-family: Consolas, &amp;quot;Courier New&amp;quot;, monospace; font-size: 14px; line-height: 19px;&quot;&gt;&lt;div style=&quot;line-height: 19px;&quot;&gt;archery.&lt;span style=&quot;color: #001080;&quot;&gt;y&lt;/span&gt; = &lt;span style=&quot;color: #001080;&quot;&gt;archery_y&lt;/span&gt;;&lt;/div&gt;&lt;/div&gt;" style="text;strokeColor=none;fillColor=none;align=left;verticalAlign=middle;spacingLeft=4;spacingRight=4;overflow=hidden;points=[[0,0.5],[1,0.5]];portConstraint=eastwest;rotatable=0;whiteSpace=wrap;html=1;rounded=1;" parent="WoGnkU7w-7urDZS7QDXh-7" vertex="1">
          <mxGeometry y="30" width="310" height="30" as="geometry" />
        </mxCell>
        <mxCell id="WoGnkU7w-7urDZS7QDXh-12" value="&lt;div style=&quot;background-color: rgb(255, 255, 255); font-family: Consolas, &amp;quot;Courier New&amp;quot;, monospace; font-size: 14px; line-height: 19px;&quot;&gt;&lt;div style=&quot;line-height: 19px;&quot;&gt;&lt;div style=&quot;line-height: 19px;&quot;&gt;AR_GAME_ARCHERY_UP&lt;/div&gt;&lt;/div&gt;&lt;/div&gt;" style="swimlane;fontStyle=0;childLayout=stackLayout;horizontal=1;startSize=30;horizontalStack=0;resizeParent=1;resizeParentMax=0;resizeLast=0;collapsible=1;marginBottom=0;whiteSpace=wrap;html=1;rounded=1;" parent="WIyWlLk6GJQsqaUBKTNV-1" vertex="1">
          <mxGeometry x="200" y="715" width="310" height="90" as="geometry" />
        </mxCell>
        <mxCell id="WoGnkU7w-7urDZS7QDXh-13" value="&lt;div style=&quot;background-color: rgb(255, 255, 255); font-family: Consolas, &amp;quot;Courier New&amp;quot;, monospace; font-size: 14px; line-height: 19px;&quot;&gt;&lt;div style=&quot;line-height: 19px;&quot;&gt;archery_y&lt;span style=&quot;color: #0000ff;&quot;&gt; &lt;/span&gt;-=&lt;span style=&quot;color: #0000ff;&quot;&gt; &lt;/span&gt;&lt;span style=&quot;color: #0000ff;&quot;&gt;STEP_ARCHERY_AXIS_Y&lt;/span&gt;&lt;span style=&quot;color: #0000ff;&quot;&gt;;&lt;/span&gt;&lt;/div&gt;&lt;/div&gt;" style="text;strokeColor=none;fillColor=none;align=left;verticalAlign=middle;spacingLeft=4;spacingRight=4;overflow=hidden;points=[[0,0.5],[1,0.5]];portConstraint=eastwest;rotatable=0;whiteSpace=wrap;html=1;rounded=1;" parent="WoGnkU7w-7urDZS7QDXh-12" vertex="1">
          <mxGeometry y="30" width="310" height="30" as="geometry" />
        </mxCell>
        <mxCell id="WoGnkU7w-7urDZS7QDXh-14" value="&lt;div style=&quot;background-color: rgb(255, 255, 255); font-family: Consolas, &amp;quot;Courier New&amp;quot;, monospace; font-size: 14px; line-height: 19px;&quot;&gt;&lt;div style=&quot;line-height: 19px;&quot;&gt;if&lt;span style=&quot;color: #0000ff;&quot;&gt; (&lt;/span&gt;&lt;span style=&quot;color: #001080;&quot;&gt;archery_y&lt;/span&gt;&lt;span style=&quot;color: #0000ff;&quot;&gt; &lt;/span&gt;==&lt;span style=&quot;color: #0000ff;&quot;&gt; &lt;/span&gt;&lt;span style=&quot;color: #098658;&quot;&gt;0&lt;/span&gt;&lt;span style=&quot;color: #0000ff;&quot;&gt;) {&lt;/span&gt;&lt;span style=&quot;color: #001080;&quot;&gt;archery_y&lt;/span&gt;&lt;span style=&quot;color: #0000ff;&quot;&gt; &lt;/span&gt;=&lt;span style=&quot;color: #0000ff;&quot;&gt; &lt;/span&gt;&lt;span style=&quot;color: #098658;&quot;&gt;10&lt;/span&gt;&lt;span style=&quot;color: #0000ff;&quot;&gt;;}&lt;/span&gt;&lt;/div&gt;&lt;/div&gt;" style="text;strokeColor=none;fillColor=none;align=left;verticalAlign=middle;spacingLeft=4;spacingRight=4;overflow=hidden;points=[[0,0.5],[1,0.5]];portConstraint=eastwest;rotatable=0;whiteSpace=wrap;html=1;rounded=1;" parent="WoGnkU7w-7urDZS7QDXh-12" vertex="1">
          <mxGeometry y="60" width="310" height="30" as="geometry" />
        </mxCell>
        <mxCell id="WoGnkU7w-7urDZS7QDXh-17" value="&lt;div style=&quot;background-color: rgb(255, 255, 255); font-family: Consolas, &amp;quot;Courier New&amp;quot;, monospace; font-size: 14px; line-height: 19px;&quot;&gt;&lt;div style=&quot;line-height: 19px;&quot;&gt;&lt;div style=&quot;line-height: 19px;&quot;&gt;AR_GAME_ARCHERY_DOWN&lt;/div&gt;&lt;/div&gt;&lt;/div&gt;" style="swimlane;fontStyle=0;childLayout=stackLayout;horizontal=1;startSize=30;horizontalStack=0;resizeParent=1;resizeParentMax=0;resizeLast=0;collapsible=1;marginBottom=0;whiteSpace=wrap;html=1;rounded=1;" parent="WIyWlLk6GJQsqaUBKTNV-1" vertex="1">
          <mxGeometry x="200" y="815" width="310" height="90" as="geometry" />
        </mxCell>
        <mxCell id="WoGnkU7w-7urDZS7QDXh-18" value="&lt;div style=&quot;background-color: rgb(255, 255, 255); font-family: Consolas, &amp;quot;Courier New&amp;quot;, monospace; font-size: 14px; line-height: 19px;&quot;&gt;&lt;div style=&quot;line-height: 19px;&quot;&gt;archery_y&lt;span style=&quot;color: #0000ff;&quot;&gt; &lt;/span&gt;+=&lt;span style=&quot;color: #0000ff;&quot;&gt; &lt;/span&gt;&lt;span style=&quot;color: #0000ff;&quot;&gt;STEP_ARCHERY_AXIS_Y&lt;/span&gt;&lt;span style=&quot;color: #0000ff;&quot;&gt;;&lt;/span&gt;&lt;/div&gt;&lt;/div&gt;" style="text;strokeColor=none;fillColor=none;align=left;verticalAlign=middle;spacingLeft=4;spacingRight=4;overflow=hidden;points=[[0,0.5],[1,0.5]];portConstraint=eastwest;rotatable=0;whiteSpace=wrap;html=1;rounded=1;" parent="WoGnkU7w-7urDZS7QDXh-17" vertex="1">
          <mxGeometry y="30" width="310" height="30" as="geometry" />
        </mxCell>
        <mxCell id="WoGnkU7w-7urDZS7QDXh-19" value="&lt;div style=&quot;background-color: rgb(255, 255, 255); font-family: Consolas, &amp;quot;Courier New&amp;quot;, monospace; font-size: 14px; line-height: 19px;&quot;&gt;&lt;div style=&quot;line-height: 19px;&quot;&gt;if&lt;span style=&quot;color: #0000ff;&quot;&gt; (&lt;/span&gt;&lt;span style=&quot;color: #001080;&quot;&gt;archery_y&lt;/span&gt;&lt;span style=&quot;color: #0000ff;&quot;&gt; &lt;/span&gt;&amp;gt;&lt;span style=&quot;color: #0000ff;&quot;&gt; &lt;/span&gt;&lt;span style=&quot;color: #098658;&quot;&gt;50&lt;/span&gt;&lt;span style=&quot;color: #0000ff;&quot;&gt;) {&lt;/span&gt;&lt;span style=&quot;color: #001080;&quot;&gt;archery_y&lt;/span&gt;&lt;span style=&quot;color: #0000ff;&quot;&gt; &lt;/span&gt;=&lt;span style=&quot;color: #0000ff;&quot;&gt; &lt;/span&gt;&lt;span style=&quot;color: #098658;&quot;&gt;50&lt;/span&gt;&lt;span style=&quot;color: #0000ff;&quot;&gt;;}&lt;/span&gt;&lt;/div&gt;&lt;/div&gt;" style="text;strokeColor=none;fillColor=none;align=left;verticalAlign=middle;spacingLeft=4;spacingRight=4;overflow=hidden;points=[[0,0.5],[1,0.5]];portConstraint=eastwest;rotatable=0;whiteSpace=wrap;html=1;rounded=1;" parent="WoGnkU7w-7urDZS7QDXh-17" vertex="1">
          <mxGeometry y="60" width="310" height="30" as="geometry" />
        </mxCell>
        <mxCell id="8Bc5X0JGQG7bx1Ke6ycb-24" value="" style="edgeStyle=orthogonalEdgeStyle;rounded=1;orthogonalLoop=1;jettySize=auto;html=1;" parent="WIyWlLk6GJQsqaUBKTNV-1" edge="1">
          <mxGeometry relative="1" as="geometry">
            <mxPoint x="510" y="1055" as="sourcePoint" />
            <mxPoint x="640" y="1055" as="targetPoint" />
          </mxGeometry>
        </mxCell>
        <mxCell id="WoGnkU7w-7urDZS7QDXh-22" value="&lt;div style=&quot;background-color: rgb(255, 255, 255); font-family: Consolas, &amp;quot;Courier New&amp;quot;, monospace; font-size: 14px; line-height: 19px;&quot;&gt;&lt;div style=&quot;line-height: 19px;&quot;&gt;&lt;div style=&quot;line-height: 19px;&quot;&gt;&lt;div style=&quot;line-height: 19px;&quot;&gt;AR_GAME_ARCHERY_RESET&lt;/div&gt;&lt;/div&gt;&lt;/div&gt;&lt;/div&gt;" style="swimlane;fontStyle=0;childLayout=stackLayout;horizontal=1;startSize=30;horizontalStack=0;resizeParent=1;resizeParentMax=0;resizeLast=0;collapsible=1;marginBottom=0;whiteSpace=wrap;html=1;rounded=1;" parent="WIyWlLk6GJQsqaUBKTNV-1" vertex="1">
          <mxGeometry x="200" y="915" width="310" height="150" as="geometry" />
        </mxCell>
        <mxCell id="WoGnkU7w-7urDZS7QDXh-23" value="&lt;div style=&quot;background-color: rgb(255, 255, 255); font-family: Consolas, &amp;quot;Courier New&amp;quot;, monospace; font-size: 14px; line-height: 19px;&quot;&gt;&lt;div style=&quot;line-height: 19px;&quot;&gt;archery&lt;span style=&quot;color: #0000ff;&quot;&gt;.&lt;/span&gt;&lt;span style=&quot;color: #001080;&quot;&gt;x&lt;/span&gt;&lt;span style=&quot;color: #0000ff;&quot;&gt; &lt;/span&gt;=&lt;span style=&quot;color: #0000ff;&quot;&gt; &lt;/span&gt;&lt;span style=&quot;color: #0000ff;&quot;&gt;AXIS_X_ARCHERY&lt;/span&gt;&lt;span style=&quot;color: #0000ff;&quot;&gt;;&lt;/span&gt;&lt;/div&gt;&lt;/div&gt;" style="text;strokeColor=none;fillColor=none;align=left;verticalAlign=middle;spacingLeft=4;spacingRight=4;overflow=hidden;points=[[0,0.5],[1,0.5]];portConstraint=eastwest;rotatable=0;whiteSpace=wrap;html=1;rounded=1;" parent="WoGnkU7w-7urDZS7QDXh-22" vertex="1">
          <mxGeometry y="30" width="310" height="30" as="geometry" />
        </mxCell>
        <mxCell id="WoGnkU7w-7urDZS7QDXh-24" value="&lt;div style=&quot;background-color: rgb(255, 255, 255); font-family: Consolas, &amp;quot;Courier New&amp;quot;, monospace; font-size: 14px; line-height: 19px;&quot;&gt;&lt;div style=&quot;line-height: 19px;&quot;&gt;archery&lt;span style=&quot;color: #0000ff;&quot;&gt;.&lt;/span&gt;&lt;span style=&quot;color: #001080;&quot;&gt;y&lt;/span&gt;&lt;span style=&quot;color: #0000ff;&quot;&gt; &lt;/span&gt;=&lt;span style=&quot;color: #0000ff;&quot;&gt; &lt;/span&gt;&lt;span style=&quot;color: #0000ff;&quot;&gt;AXIS_Y_ARCHERY&lt;/span&gt;&lt;span style=&quot;color: #0000ff;&quot;&gt;;&lt;/span&gt;&lt;/div&gt;&lt;/div&gt;" style="text;strokeColor=none;fillColor=none;align=left;verticalAlign=middle;spacingLeft=4;spacingRight=4;overflow=hidden;points=[[0,0.5],[1,0.5]];portConstraint=eastwest;rotatable=0;whiteSpace=wrap;html=1;rounded=1;" parent="WoGnkU7w-7urDZS7QDXh-22" vertex="1">
          <mxGeometry y="60" width="310" height="30" as="geometry" />
        </mxCell>
        <mxCell id="WoGnkU7w-7urDZS7QDXh-25" value="&lt;div style=&quot;background-color: rgb(255, 255, 255); font-family: Consolas, &amp;quot;Courier New&amp;quot;, monospace; font-size: 14px; line-height: 19px;&quot;&gt;&lt;div style=&quot;line-height: 19px;&quot;&gt;&lt;div style=&quot;line-height: 19px;&quot;&gt;archery&lt;span style=&quot;color: #0000ff;&quot;&gt;.&lt;/span&gt;&lt;span style=&quot;color: #001080;&quot;&gt;visible&lt;/span&gt;&lt;span style=&quot;color: #0000ff;&quot;&gt; &lt;/span&gt;=&lt;span style=&quot;color: #0000ff;&quot;&gt; &lt;/span&gt;&lt;span style=&quot;color: #0000ff;&quot;&gt;BLACK&lt;/span&gt;&lt;span style=&quot;color: #0000ff;&quot;&gt;;&lt;/span&gt;&lt;/div&gt;&lt;/div&gt;&lt;/div&gt;" style="text;strokeColor=none;fillColor=none;align=left;verticalAlign=middle;spacingLeft=4;spacingRight=4;overflow=hidden;points=[[0,0.5],[1,0.5]];portConstraint=eastwest;rotatable=0;whiteSpace=wrap;html=1;rounded=1;" parent="WoGnkU7w-7urDZS7QDXh-22" vertex="1">
          <mxGeometry y="90" width="310" height="30" as="geometry" />
        </mxCell>
        <mxCell id="WoGnkU7w-7urDZS7QDXh-26" value="&lt;div style=&quot;background-color: rgb(255, 255, 255); font-family: Consolas, &amp;quot;Courier New&amp;quot;, monospace; font-size: 14px; line-height: 19px;&quot;&gt;&lt;div style=&quot;line-height: 19px;&quot;&gt;archery_y&lt;span style=&quot;color: #0000ff;&quot;&gt; &lt;/span&gt;=&lt;span style=&quot;color: #0000ff;&quot;&gt; &lt;/span&gt;&lt;span style=&quot;color: #0000ff;&quot;&gt;AXIS_Y_ARCHERY&lt;/span&gt;&lt;span style=&quot;color: #0000ff;&quot;&gt;;&lt;/span&gt;&lt;/div&gt;&lt;/div&gt;" style="text;strokeColor=none;fillColor=none;align=left;verticalAlign=middle;spacingLeft=4;spacingRight=4;overflow=hidden;points=[[0,0.5],[1,0.5]];portConstraint=eastwest;rotatable=0;whiteSpace=wrap;html=1;rounded=1;" parent="WoGnkU7w-7urDZS7QDXh-22" vertex="1">
          <mxGeometry y="120" width="310" height="30" as="geometry" />
        </mxCell>
        <mxCell id="WoGnkU7w-7urDZS7QDXh-28" value="" style="edgeStyle=orthogonalEdgeStyle;rounded=1;orthogonalLoop=1;jettySize=auto;html=1;" parent="WIyWlLk6GJQsqaUBKTNV-1" source="WoGnkU7w-7urDZS7QDXh-27" target="WIyWlLk6GJQsqaUBKTNV-3" edge="1">
          <mxGeometry relative="1" as="geometry" />
        </mxCell>
        <mxCell id="8Bc5X0JGQG7bx1Ke6ycb-31" value="&lt;font style=&quot;font-size: 13px;&quot;&gt;Yes&lt;/font&gt;" style="edgeLabel;html=1;align=center;verticalAlign=middle;resizable=0;points=[];rounded=1;" parent="WoGnkU7w-7urDZS7QDXh-28" vertex="1" connectable="0">
          <mxGeometry x="-0.0719" y="1" relative="1" as="geometry">
            <mxPoint x="13" y="-4" as="offset" />
          </mxGeometry>
        </mxCell>
        <mxCell id="8Bc5X0JGQG7bx1Ke6ycb-2" value="" style="edgeStyle=orthogonalEdgeStyle;rounded=1;orthogonalLoop=1;jettySize=auto;html=1;endArrow=halfCircle;endFill=0;" parent="WIyWlLk6GJQsqaUBKTNV-1" source="8Bc5X0JGQG7bx1Ke6ycb-0" target="8Bc5X0JGQG7bx1Ke6ycb-1" edge="1">
          <mxGeometry relative="1" as="geometry" />
        </mxCell>
        <mxCell id="8Bc5X0JGQG7bx1Ke6ycb-3" value="" style="edgeStyle=orthogonalEdgeStyle;rounded=1;orthogonalLoop=1;jettySize=auto;html=1;" parent="WIyWlLk6GJQsqaUBKTNV-1" source="8Bc5X0JGQG7bx1Ke6ycb-0" edge="1">
          <mxGeometry relative="1" as="geometry">
            <mxPoint x="200" y="495" as="targetPoint" />
            <Array as="points">
              <mxPoint x="170" y="495" />
            </Array>
          </mxGeometry>
        </mxCell>
        <mxCell id="8Bc5X0JGQG7bx1Ke6ycb-0" value="" style="ellipse;whiteSpace=wrap;html=1;rounded=1;" parent="WIyWlLk6GJQsqaUBKTNV-1" vertex="1">
          <mxGeometry x="160" y="425" width="20" height="20" as="geometry" />
        </mxCell>
        <mxCell id="8Bc5X0JGQG7bx1Ke6ycb-1" value="&lt;div style=&quot;background-color: rgb(255, 255, 255); font-family: Consolas, &amp;quot;Courier New&amp;quot;, monospace; font-size: 14px; line-height: 19px;&quot;&gt;switch (&lt;span style=&quot;color: #001080;&quot;&gt;msg&lt;/span&gt;-&amp;gt;&lt;font color=&quot;#001080&quot;&gt;signal&lt;/font&gt;)&lt;/div&gt;" style="whiteSpace=wrap;html=1;rounded=1;" parent="WIyWlLk6GJQsqaUBKTNV-1" vertex="1">
          <mxGeometry x="200" y="420" width="170" height="30" as="geometry" />
        </mxCell>
        <mxCell id="8Bc5X0JGQG7bx1Ke6ycb-6" value="" style="edgeStyle=orthogonalEdgeStyle;rounded=1;orthogonalLoop=1;jettySize=auto;html=1;entryX=0;entryY=0.116;entryDx=0;entryDy=0;entryPerimeter=0;exitX=-0.001;exitY=0.343;exitDx=0;exitDy=0;exitPerimeter=0;" parent="WIyWlLk6GJQsqaUBKTNV-1" source="WoGnkU7w-7urDZS7QDXh-7" target="WoGnkU7w-7urDZS7QDXh-12" edge="1">
          <mxGeometry relative="1" as="geometry">
            <mxPoint x="190" y="665" as="sourcePoint" />
            <mxPoint x="180" y="725" as="targetPoint" />
            <Array as="points">
              <mxPoint x="170" y="666" />
              <mxPoint x="170" y="725" />
            </Array>
          </mxGeometry>
        </mxCell>
        <mxCell id="8Bc5X0JGQG7bx1Ke6ycb-7" value="" style="edgeStyle=orthogonalEdgeStyle;rounded=1;orthogonalLoop=1;jettySize=auto;html=1;entryX=0;entryY=0.111;entryDx=0;entryDy=0;entryPerimeter=0;exitX=0;exitY=0.222;exitDx=0;exitDy=0;exitPerimeter=0;" parent="WIyWlLk6GJQsqaUBKTNV-1" source="WoGnkU7w-7urDZS7QDXh-12" target="WoGnkU7w-7urDZS7QDXh-17" edge="1">
          <mxGeometry relative="1" as="geometry">
            <mxPoint x="190" y="735" as="sourcePoint" />
            <mxPoint x="199" y="794.5" as="targetPoint" />
            <Array as="points">
              <mxPoint x="170" y="735" />
              <mxPoint x="170" y="825" />
            </Array>
          </mxGeometry>
        </mxCell>
        <mxCell id="8Bc5X0JGQG7bx1Ke6ycb-8" value="" style="edgeStyle=orthogonalEdgeStyle;rounded=1;orthogonalLoop=1;jettySize=auto;html=1;entryX=0;entryY=0.066;entryDx=0;entryDy=0;entryPerimeter=0;exitX=0;exitY=0.209;exitDx=0;exitDy=0;exitPerimeter=0;" parent="WIyWlLk6GJQsqaUBKTNV-1" source="WoGnkU7w-7urDZS7QDXh-17" target="WoGnkU7w-7urDZS7QDXh-22" edge="1">
          <mxGeometry relative="1" as="geometry">
            <mxPoint x="190" y="835" as="sourcePoint" />
            <mxPoint x="189" y="894" as="targetPoint" />
            <Array as="points">
              <mxPoint x="200" y="835" />
              <mxPoint x="170" y="835" />
              <mxPoint x="170" y="925" />
            </Array>
          </mxGeometry>
        </mxCell>
        <mxCell id="8Bc5X0JGQG7bx1Ke6ycb-9" value="" style="edgeStyle=orthogonalEdgeStyle;rounded=1;orthogonalLoop=1;jettySize=auto;html=1;exitX=0;exitY=0.133;exitDx=0;exitDy=0;exitPerimeter=0;entryX=0.001;entryY=0.339;entryDx=0;entryDy=0;entryPerimeter=0;" parent="WIyWlLk6GJQsqaUBKTNV-1" source="WoGnkU7w-7urDZS7QDXh-22" target="8Bc5X0JGQG7bx1Ke6ycb-10" edge="1">
          <mxGeometry relative="1" as="geometry">
            <mxPoint x="199" y="935" as="sourcePoint" />
            <mxPoint x="199" y="1095" as="targetPoint" />
            <Array as="points">
              <mxPoint x="170" y="935" />
              <mxPoint x="170" y="1095" />
            </Array>
          </mxGeometry>
        </mxCell>
        <mxCell id="8Bc5X0JGQG7bx1Ke6ycb-18" value="" style="edgeStyle=orthogonalEdgeStyle;rounded=1;orthogonalLoop=1;jettySize=auto;html=1;" parent="WIyWlLk6GJQsqaUBKTNV-1" source="8Bc5X0JGQG7bx1Ke6ycb-10" edge="1">
          <mxGeometry relative="1" as="geometry">
            <mxPoint x="638" y="156" as="targetPoint" />
            <Array as="points">
              <mxPoint x="639" y="1100" />
              <mxPoint x="639" y="180" />
              <mxPoint x="638" y="180" />
            </Array>
          </mxGeometry>
        </mxCell>
        <mxCell id="8Bc5X0JGQG7bx1Ke6ycb-10" value="&lt;div style=&quot;background-color: rgb(255, 255, 255); font-family: Consolas, &amp;quot;Courier New&amp;quot;, monospace; font-size: 14px; line-height: 19px;&quot;&gt;&lt;div style=&quot;line-height: 19px;&quot;&gt;&lt;div style=&quot;line-height: 19px;&quot;&gt;&lt;div style=&quot;line-height: 19px;&quot;&gt;&lt;div style=&quot;line-height: 19px;&quot;&gt;default&lt;/div&gt;&lt;/div&gt;&lt;/div&gt;&lt;/div&gt;&lt;/div&gt;" style="swimlane;fontStyle=0;childLayout=stackLayout;horizontal=1;startSize=30;horizontalStack=0;resizeParent=1;resizeParentMax=0;resizeLast=0;collapsible=1;marginBottom=0;whiteSpace=wrap;html=1;rounded=1;" parent="WIyWlLk6GJQsqaUBKTNV-1" vertex="1">
          <mxGeometry x="200" y="1085" width="310" height="30" as="geometry" />
        </mxCell>
        <mxCell id="8Bc5X0JGQG7bx1Ke6ycb-30" value="" style="edgeStyle=orthogonalEdgeStyle;rounded=1;orthogonalLoop=1;jettySize=auto;html=1;entryX=0.5;entryY=0;entryDx=0;entryDy=0;exitX=-0.004;exitY=0.13;exitDx=0;exitDy=0;exitPerimeter=0;" parent="WIyWlLk6GJQsqaUBKTNV-1" target="WoGnkU7w-7urDZS7QDXh-27" edge="1" source="I1_TGJQqy7sbMWfpH_zE-6">
          <mxGeometry relative="1" as="geometry">
            <mxPoint x="346" y="175" as="targetPoint" />
            <Array as="points">
              <mxPoint x="346" y="47" />
            </Array>
            <mxPoint x="414.00000000000045" y="125" as="sourcePoint" />
          </mxGeometry>
        </mxCell>
        <mxCell id="8Bc5X0JGQG7bx1Ke6ycb-25" value="" style="edgeStyle=orthogonalEdgeStyle;rounded=1;orthogonalLoop=1;jettySize=auto;html=1;" parent="WIyWlLk6GJQsqaUBKTNV-1" edge="1">
          <mxGeometry relative="1" as="geometry">
            <mxPoint x="510" y="895" as="sourcePoint" />
            <mxPoint x="640" y="895" as="targetPoint" />
          </mxGeometry>
        </mxCell>
        <mxCell id="8Bc5X0JGQG7bx1Ke6ycb-26" value="" style="edgeStyle=orthogonalEdgeStyle;rounded=1;orthogonalLoop=1;jettySize=auto;html=1;" parent="WIyWlLk6GJQsqaUBKTNV-1" edge="1">
          <mxGeometry relative="1" as="geometry">
            <mxPoint x="510" y="795" as="sourcePoint" />
            <mxPoint x="640" y="795" as="targetPoint" />
          </mxGeometry>
        </mxCell>
        <mxCell id="8Bc5X0JGQG7bx1Ke6ycb-27" value="" style="edgeStyle=orthogonalEdgeStyle;rounded=1;orthogonalLoop=1;jettySize=auto;html=1;" parent="WIyWlLk6GJQsqaUBKTNV-1" edge="1">
          <mxGeometry relative="1" as="geometry">
            <mxPoint x="510" y="695" as="sourcePoint" />
            <mxPoint x="640" y="695" as="targetPoint" />
          </mxGeometry>
        </mxCell>
        <mxCell id="8Bc5X0JGQG7bx1Ke6ycb-28" value="" style="edgeStyle=orthogonalEdgeStyle;rounded=1;orthogonalLoop=1;jettySize=auto;html=1;" parent="WIyWlLk6GJQsqaUBKTNV-1" edge="1">
          <mxGeometry relative="1" as="geometry">
            <mxPoint x="510" y="625" as="sourcePoint" />
            <mxPoint x="640" y="625" as="targetPoint" />
          </mxGeometry>
        </mxCell>
        <mxCell id="WoGnkU7w-7urDZS7QDXh-27" value="&lt;div style=&quot;background-color: rgb(255, 255, 255); font-family: Consolas, &amp;quot;Courier New&amp;quot;, monospace; font-size: 14px; line-height: 19px;&quot;&gt;task_post_pure_msg(&lt;/div&gt;&lt;div style=&quot;background-color: rgb(255, 255, 255); font-family: Consolas, &amp;quot;Courier New&amp;quot;, monospace; font-size: 14px; line-height: 19px;&quot;&gt;&lt;font color=&quot;#ff3333&quot;&gt;AR_GAME_ARCHERY_ID&lt;/font&gt;,&amp;nbsp;&lt;/div&gt;&lt;div style=&quot;background-color: rgb(255, 255, 255); font-family: Consolas, &amp;quot;Courier New&amp;quot;, monospace; font-size: 14px; line-height: 19px;&quot;&gt;ak_msg_t* &lt;font color=&quot;#ff0000&quot;&gt;msg&lt;/font&gt;)&lt;/div&gt;" style="rhombus;whiteSpace=wrap;html=1;rounded=1;" parent="WIyWlLk6GJQsqaUBKTNV-1" vertex="1">
          <mxGeometry x="183.37" y="165" width="325.25" height="110" as="geometry" />
        </mxCell>
        <mxCell id="8Bc5X0JGQG7bx1Ke6ycb-33" value="&lt;b&gt;(1)&lt;/b&gt;" style="text;html=1;strokeColor=none;fillColor=none;align=center;verticalAlign=middle;whiteSpace=wrap;rounded=0;" parent="WIyWlLk6GJQsqaUBKTNV-1" vertex="1">
          <mxGeometry x="290" y="20" width="30" height="30" as="geometry" />
        </mxCell>
        <mxCell id="8Bc5X0JGQG7bx1Ke6ycb-34" value="&lt;b&gt;(2)&lt;/b&gt;" style="text;html=1;strokeColor=none;fillColor=none;align=center;verticalAlign=middle;whiteSpace=wrap;rounded=0;" parent="WIyWlLk6GJQsqaUBKTNV-1" vertex="1">
          <mxGeometry x="290" y="80" width="30" height="30" as="geometry" />
        </mxCell>
        <mxCell id="8Bc5X0JGQG7bx1Ke6ycb-35" value="&lt;b&gt;(3)&lt;/b&gt;" style="text;html=1;strokeColor=none;fillColor=none;align=center;verticalAlign=middle;whiteSpace=wrap;rounded=0;" parent="WIyWlLk6GJQsqaUBKTNV-1" vertex="1">
          <mxGeometry x="370" y="20" width="30" height="30" as="geometry" />
        </mxCell>
        <mxCell id="8Bc5X0JGQG7bx1Ke6ycb-36" value="&lt;b&gt;(4)&lt;/b&gt;" style="text;html=1;strokeColor=none;fillColor=none;align=center;verticalAlign=middle;whiteSpace=wrap;rounded=0;" parent="WIyWlLk6GJQsqaUBKTNV-1" vertex="1">
          <mxGeometry x="153.37" y="200" width="30" height="30" as="geometry" />
        </mxCell>
        <mxCell id="8Bc5X0JGQG7bx1Ke6ycb-38" value="&lt;b&gt;(6)&lt;/b&gt;" style="text;html=1;strokeColor=none;fillColor=none;align=center;verticalAlign=middle;whiteSpace=wrap;rounded=0;" parent="WIyWlLk6GJQsqaUBKTNV-1" vertex="1">
          <mxGeometry x="510" y="545" width="30" height="30" as="geometry" />
        </mxCell>
        <mxCell id="8Bc5X0JGQG7bx1Ke6ycb-39" value="&lt;b&gt;(7)&lt;/b&gt;" style="text;html=1;strokeColor=none;fillColor=none;align=center;verticalAlign=middle;whiteSpace=wrap;rounded=0;" parent="WIyWlLk6GJQsqaUBKTNV-1" vertex="1">
          <mxGeometry x="510" y="660" width="30" height="30" as="geometry" />
        </mxCell>
        <mxCell id="8Bc5X0JGQG7bx1Ke6ycb-40" value="&lt;b&gt;(8)&lt;/b&gt;" style="text;html=1;strokeColor=none;fillColor=none;align=center;verticalAlign=middle;whiteSpace=wrap;rounded=0;" parent="WIyWlLk6GJQsqaUBKTNV-1" vertex="1">
          <mxGeometry x="510" y="755" width="30" height="30" as="geometry" />
        </mxCell>
        <mxCell id="8Bc5X0JGQG7bx1Ke6ycb-41" value="&lt;b&gt;(9)&lt;/b&gt;" style="text;html=1;strokeColor=none;fillColor=none;align=center;verticalAlign=middle;whiteSpace=wrap;rounded=0;" parent="WIyWlLk6GJQsqaUBKTNV-1" vertex="1">
          <mxGeometry x="510" y="855" width="30" height="30" as="geometry" />
        </mxCell>
        <mxCell id="8Bc5X0JGQG7bx1Ke6ycb-42" value="&lt;b&gt;(10)&lt;/b&gt;" style="text;html=1;strokeColor=none;fillColor=none;align=center;verticalAlign=middle;whiteSpace=wrap;rounded=0;" parent="WIyWlLk6GJQsqaUBKTNV-1" vertex="1">
          <mxGeometry x="508.62" y="975" width="30" height="30" as="geometry" />
        </mxCell>
        <mxCell id="8Bc5X0JGQG7bx1Ke6ycb-43" value="&lt;b&gt;(11)&lt;/b&gt;" style="text;html=1;strokeColor=none;fillColor=none;align=center;verticalAlign=middle;whiteSpace=wrap;rounded=0;" parent="WIyWlLk6GJQsqaUBKTNV-1" vertex="1">
          <mxGeometry x="600" y="1065" width="30" height="30" as="geometry" />
        </mxCell>
        <mxCell id="I1_TGJQqy7sbMWfpH_zE-6" value="scr_archery_game_handle(&lt;span style=&quot;border-color: var(--border-color); font-family: Consolas, &amp;quot;Courier New&amp;quot;, monospace; font-size: 14px; color: rgb(38, 127, 153);&quot;&gt;ak_msg_t&lt;/span&gt;&lt;span style=&quot;border-color: var(--border-color); font-family: Consolas, &amp;quot;Courier New&amp;quot;, monospace; font-size: 14px; color: rgb(0, 0, 255);&quot;&gt;*&lt;/span&gt;&lt;span style=&quot;font-family: Consolas, &amp;quot;Courier New&amp;quot;, monospace; font-size: 14px; background-color: rgb(255, 255, 255);&quot;&gt;&amp;nbsp;&lt;/span&gt;&lt;span style=&quot;border-color: var(--border-color); font-family: Consolas, &amp;quot;Courier New&amp;quot;, monospace; font-size: 14px; color: rgb(0, 16, 128);&quot;&gt;msg&lt;/span&gt;&lt;span style=&quot;font-family: Consolas, &amp;quot;Courier New&amp;quot;, monospace; font-size: 14px; background-color: rgb(255, 255, 255);&quot;&gt;)&lt;/span&gt;" style="swimlane;fontStyle=0;childLayout=stackLayout;horizontal=1;startSize=40;horizontalStack=0;resizeParent=1;resizeParentMax=0;resizeLast=0;collapsible=1;marginBottom=0;whiteSpace=wrap;html=1;" vertex="1" parent="WIyWlLk6GJQsqaUBKTNV-1">
          <mxGeometry x="414" y="30" width="286" height="130" as="geometry" />
        </mxCell>
        <mxCell id="I1_TGJQqy7sbMWfpH_zE-7" value="&lt;div style=&quot;background-color: rgb(255, 255, 255); font-family: Consolas, &amp;quot;Courier New&amp;quot;, monospace; font-size: 14px; line-height: 19px;&quot;&gt;AR_GAME_ARCHERY_SETUP&lt;/div&gt;" style="text;strokeColor=none;fillColor=none;align=left;verticalAlign=middle;spacingLeft=4;spacingRight=4;overflow=hidden;points=[[0,0.5],[1,0.5]];portConstraint=eastwest;rotatable=0;whiteSpace=wrap;html=1;" vertex="1" parent="I1_TGJQqy7sbMWfpH_zE-6">
          <mxGeometry y="40" width="286" height="30" as="geometry" />
        </mxCell>
        <mxCell id="I1_TGJQqy7sbMWfpH_zE-8" value="&lt;div style=&quot;background-color: rgb(255, 255, 255); font-family: Consolas, &amp;quot;Courier New&amp;quot;, monospace; font-size: 14px; line-height: 19px;&quot;&gt;AR_GAME_ARCHERY_UPDATE&lt;/div&gt;" style="text;strokeColor=none;fillColor=none;align=left;verticalAlign=middle;spacingLeft=4;spacingRight=4;overflow=hidden;points=[[0,0.5],[1,0.5]];portConstraint=eastwest;rotatable=0;whiteSpace=wrap;html=1;" vertex="1" parent="I1_TGJQqy7sbMWfpH_zE-6">
          <mxGeometry y="70" width="286" height="30" as="geometry" />
        </mxCell>
        <mxCell id="I1_TGJQqy7sbMWfpH_zE-9" value="&lt;div style=&quot;background-color: rgb(255, 255, 255); font-family: Consolas, &amp;quot;Courier New&amp;quot;, monospace; font-size: 14px; line-height: 19px;&quot;&gt;AR_GAME_ARCHERY_RESET&lt;/div&gt;" style="text;strokeColor=none;fillColor=none;align=left;verticalAlign=middle;spacingLeft=4;spacingRight=4;overflow=hidden;points=[[0,0.5],[1,0.5]];portConstraint=eastwest;rotatable=0;whiteSpace=wrap;html=1;" vertex="1" parent="I1_TGJQqy7sbMWfpH_zE-6">
          <mxGeometry y="100" width="286" height="30" as="geometry" />
        </mxCell>
        <mxCell id="I1_TGJQqy7sbMWfpH_zE-10" value="btn_up_callback(&lt;span style=&quot;border-color: var(--border-color); font-family: Consolas, &amp;quot;Courier New&amp;quot;, monospace; font-size: 14px; background-color: rgb(255, 255, 255); color: rgb(0, 0, 255);&quot;&gt;void*&lt;/span&gt;&lt;span style=&quot;font-family: Consolas, &amp;quot;Courier New&amp;quot;, monospace; font-size: 14px; background-color: rgb(255, 255, 255);&quot;&gt;&amp;nbsp;&lt;/span&gt;&lt;span style=&quot;border-color: var(--border-color); font-family: Consolas, &amp;quot;Courier New&amp;quot;, monospace; font-size: 14px; background-color: rgb(255, 255, 255); color: rgb(0, 16, 128);&quot;&gt;b&lt;/span&gt;&lt;span style=&quot;font-family: Consolas, &amp;quot;Courier New&amp;quot;, monospace; font-size: 14px; background-color: rgb(255, 255, 255);&quot;&gt;)&lt;/span&gt;" style="swimlane;fontStyle=0;childLayout=stackLayout;horizontal=1;startSize=30;horizontalStack=0;resizeParent=1;resizeParentMax=0;resizeLast=0;collapsible=1;marginBottom=0;whiteSpace=wrap;html=1;" vertex="1" parent="WIyWlLk6GJQsqaUBKTNV-1">
          <mxGeometry x="2" y="30" width="286" height="60" as="geometry" />
        </mxCell>
        <mxCell id="I1_TGJQqy7sbMWfpH_zE-11" value="&lt;div style=&quot;background-color: rgb(255, 255, 255); font-family: Consolas, &amp;quot;Courier New&amp;quot;, monospace; font-size: 14px; line-height: 19px;&quot;&gt;AR_GAME_ARCHERY_UP&lt;/div&gt;" style="text;strokeColor=none;fillColor=none;align=left;verticalAlign=middle;spacingLeft=4;spacingRight=4;overflow=hidden;points=[[0,0.5],[1,0.5]];portConstraint=eastwest;rotatable=0;whiteSpace=wrap;html=1;" vertex="1" parent="I1_TGJQqy7sbMWfpH_zE-10">
          <mxGeometry y="30" width="286" height="30" as="geometry" />
        </mxCell>
        <mxCell id="I1_TGJQqy7sbMWfpH_zE-14" value="btn_down_callback(&lt;span style=&quot;border-color: var(--border-color); font-family: Consolas, &amp;quot;Courier New&amp;quot;, monospace; font-size: 14px; background-color: rgb(255, 255, 255); color: rgb(0, 0, 255);&quot;&gt;void*&lt;/span&gt;&lt;span style=&quot;font-family: Consolas, &amp;quot;Courier New&amp;quot;, monospace; font-size: 14px; background-color: rgb(255, 255, 255);&quot;&gt;&amp;nbsp;&lt;/span&gt;&lt;span style=&quot;border-color: var(--border-color); font-family: Consolas, &amp;quot;Courier New&amp;quot;, monospace; font-size: 14px; background-color: rgb(255, 255, 255); color: rgb(0, 16, 128);&quot;&gt;b&lt;/span&gt;&lt;span style=&quot;font-family: Consolas, &amp;quot;Courier New&amp;quot;, monospace; font-size: 14px; background-color: rgb(255, 255, 255);&quot;&gt;)&lt;/span&gt;" style="swimlane;fontStyle=0;childLayout=stackLayout;horizontal=1;startSize=30;horizontalStack=0;resizeParent=1;resizeParentMax=0;resizeLast=0;collapsible=1;marginBottom=0;whiteSpace=wrap;html=1;" vertex="1" parent="WIyWlLk6GJQsqaUBKTNV-1">
          <mxGeometry x="2" y="100" width="286" height="60" as="geometry" />
        </mxCell>
        <mxCell id="I1_TGJQqy7sbMWfpH_zE-15" value="&lt;div style=&quot;background-color: rgb(255, 255, 255); font-family: Consolas, &amp;quot;Courier New&amp;quot;, monospace; font-size: 14px; line-height: 19px;&quot;&gt;AR_GAME_ARCHERY_DOWN&lt;/div&gt;" style="text;strokeColor=none;fillColor=none;align=left;verticalAlign=middle;spacingLeft=4;spacingRight=4;overflow=hidden;points=[[0,0.5],[1,0.5]];portConstraint=eastwest;rotatable=0;whiteSpace=wrap;html=1;" vertex="1" parent="I1_TGJQqy7sbMWfpH_zE-14">
          <mxGeometry y="30" width="286" height="30" as="geometry" />
        </mxCell>
        <mxCell id="I1_TGJQqy7sbMWfpH_zE-21" value="" style="edgeStyle=orthogonalEdgeStyle;rounded=1;orthogonalLoop=1;jettySize=auto;html=1;entryX=0.5;entryY=0;entryDx=0;entryDy=0;exitX=1;exitY=0.25;exitDx=0;exitDy=0;" edge="1" parent="WIyWlLk6GJQsqaUBKTNV-1" source="I1_TGJQqy7sbMWfpH_zE-10">
          <mxGeometry relative="1" as="geometry">
            <mxPoint x="347" y="165" as="targetPoint" />
            <Array as="points">
              <mxPoint x="288" y="47" />
              <mxPoint x="347" y="47" />
            </Array>
            <mxPoint x="414" y="47" as="sourcePoint" />
          </mxGeometry>
        </mxCell>
        <mxCell id="I1_TGJQqy7sbMWfpH_zE-22" value="" style="edgeStyle=orthogonalEdgeStyle;rounded=1;orthogonalLoop=1;jettySize=auto;html=1;entryX=0.5;entryY=0;entryDx=0;entryDy=0;exitX=1;exitY=0.25;exitDx=0;exitDy=0;" edge="1" parent="WIyWlLk6GJQsqaUBKTNV-1" source="I1_TGJQqy7sbMWfpH_zE-14">
          <mxGeometry relative="1" as="geometry">
            <mxPoint x="347" y="165" as="targetPoint" />
            <Array as="points">
              <mxPoint x="288" y="110" />
              <mxPoint x="347" y="110" />
            </Array>
            <mxPoint x="414" y="47" as="sourcePoint" />
          </mxGeometry>
        </mxCell>
        <mxCell id="I1_TGJQqy7sbMWfpH_zE-23" value="&lt;b&gt;(5)&lt;/b&gt;" style="text;html=1;strokeColor=none;fillColor=none;align=center;verticalAlign=middle;whiteSpace=wrap;rounded=0;" vertex="1" parent="WIyWlLk6GJQsqaUBKTNV-1">
          <mxGeometry x="150" y="290" width="30" height="30" as="geometry" />
        </mxCell>
      </root>
    </mxGraphModel>
  </diagram>
  <diagram id="JbotPXYpZQ2I7Fp1FVJT" name="Page-2">
    <mxGraphModel dx="1461" dy="622" grid="1" gridSize="10" guides="1" tooltips="1" connect="1" arrows="1" fold="1" page="1" pageScale="1" pageWidth="850" pageHeight="1100" math="0" shadow="0">
      <root>
        <mxCell id="0" />
        <mxCell id="1" parent="0" />
        <mxCell id="EtP6E1cX7hbLUe73JwAR-1" value="" style="edgeStyle=orthogonalEdgeStyle;rounded=0;orthogonalLoop=1;jettySize=auto;html=1;" parent="1" source="EtP6E1cX7hbLUe73JwAR-2" target="EtP6E1cX7hbLUe73JwAR-3" edge="1">
          <mxGeometry relative="1" as="geometry" />
        </mxCell>
        <mxCell id="EtP6E1cX7hbLUe73JwAR-2" value="&lt;div&gt;ar_game_archery_handle&lt;br&gt;&lt;/div&gt;" style="rounded=1;whiteSpace=wrap;html=1;fontSize=12;glass=0;strokeWidth=1;shadow=0;" parent="1" vertex="1">
          <mxGeometry x="295" y="270" width="200" height="70" as="geometry" />
        </mxCell>
        <mxCell id="EtP6E1cX7hbLUe73JwAR-3" value="" style="rounded=1;whiteSpace=wrap;html=1;fontSize=12;glass=0;strokeWidth=1;shadow=0;" parent="1" vertex="1">
          <mxGeometry x="130" y="370" width="530" height="620" as="geometry" />
        </mxCell>
        <mxCell id="EtP6E1cX7hbLUe73JwAR-4" value="&lt;div style=&quot;background-color: rgb(255, 255, 255); font-family: Consolas, &amp;quot;Courier New&amp;quot;, monospace; font-size: 14px; line-height: 19px;&quot;&gt;&lt;div style=&quot;line-height: 19px;&quot;&gt;AR_GAME_ARCHERY_SETUP&lt;/div&gt;&lt;/div&gt;" style="swimlane;fontStyle=0;childLayout=stackLayout;horizontal=1;startSize=30;horizontalStack=0;resizeParent=1;resizeParentMax=0;resizeLast=0;collapsible=1;marginBottom=0;whiteSpace=wrap;html=1;" parent="1" vertex="1">
          <mxGeometry x="170" y="390" width="310" height="150" as="geometry" />
        </mxCell>
        <mxCell id="EtP6E1cX7hbLUe73JwAR-5" value="&lt;div style=&quot;background-color: rgb(255, 255, 255); font-family: Consolas, &amp;quot;Courier New&amp;quot;, monospace; font-size: 14px; line-height: 19px;&quot;&gt;archery&lt;span style=&quot;color: #0000ff;&quot;&gt;.&lt;/span&gt;&lt;span style=&quot;color: #001080;&quot;&gt;x&lt;/span&gt;&lt;span style=&quot;color: #0000ff;&quot;&gt; &lt;/span&gt;=&lt;span style=&quot;color: #0000ff;&quot;&gt; &lt;/span&gt;&lt;span style=&quot;color: #0000ff;&quot;&gt;AXIS_X_ARCHERY&lt;/span&gt;&lt;span style=&quot;color: #0000ff;&quot;&gt;;&lt;/span&gt;&lt;/div&gt;" style="text;strokeColor=none;fillColor=none;align=left;verticalAlign=middle;spacingLeft=4;spacingRight=4;overflow=hidden;points=[[0,0.5],[1,0.5]];portConstraint=eastwest;rotatable=0;whiteSpace=wrap;html=1;" parent="EtP6E1cX7hbLUe73JwAR-4" vertex="1">
          <mxGeometry y="30" width="310" height="30" as="geometry" />
        </mxCell>
        <mxCell id="EtP6E1cX7hbLUe73JwAR-6" value="&lt;div style=&quot;background-color: rgb(255, 255, 255); font-family: Consolas, &amp;quot;Courier New&amp;quot;, monospace; font-size: 14px; line-height: 19px;&quot;&gt;archery&lt;span style=&quot;color: #0000ff;&quot;&gt;.&lt;/span&gt;&lt;span style=&quot;color: #001080;&quot;&gt;y&lt;/span&gt;&lt;span style=&quot;color: #0000ff;&quot;&gt; &lt;/span&gt;=&lt;span style=&quot;color: #0000ff;&quot;&gt; &lt;/span&gt;&lt;span style=&quot;color: #0000ff;&quot;&gt;AXIS_Y_ARCHERY&lt;/span&gt;&lt;span style=&quot;color: #0000ff;&quot;&gt;;&lt;/span&gt;&lt;/div&gt;" style="text;strokeColor=none;fillColor=none;align=left;verticalAlign=middle;spacingLeft=4;spacingRight=4;overflow=hidden;points=[[0,0.5],[1,0.5]];portConstraint=eastwest;rotatable=0;whiteSpace=wrap;html=1;" parent="EtP6E1cX7hbLUe73JwAR-4" vertex="1">
          <mxGeometry y="60" width="310" height="30" as="geometry" />
        </mxCell>
        <mxCell id="EtP6E1cX7hbLUe73JwAR-7" value="&lt;div style=&quot;background-color: rgb(255, 255, 255); font-family: Consolas, &amp;quot;Courier New&amp;quot;, monospace; font-size: 14px; line-height: 19px;&quot;&gt;&lt;div style=&quot;line-height: 19px;&quot;&gt;archery&lt;span style=&quot;color: #0000ff;&quot;&gt;.&lt;/span&gt;&lt;span style=&quot;color: #001080;&quot;&gt;visible&lt;/span&gt;&lt;span style=&quot;color: #0000ff;&quot;&gt; &lt;/span&gt;=&lt;span style=&quot;color: #0000ff;&quot;&gt; &lt;/span&gt;&lt;span style=&quot;color: #0000ff;&quot;&gt;WHITE&lt;/span&gt;&lt;span style=&quot;color: #0000ff;&quot;&gt;;&lt;/span&gt;&lt;/div&gt;&lt;/div&gt;" style="text;strokeColor=none;fillColor=none;align=left;verticalAlign=middle;spacingLeft=4;spacingRight=4;overflow=hidden;points=[[0,0.5],[1,0.5]];portConstraint=eastwest;rotatable=0;whiteSpace=wrap;html=1;" parent="EtP6E1cX7hbLUe73JwAR-4" vertex="1">
          <mxGeometry y="90" width="310" height="30" as="geometry" />
        </mxCell>
        <mxCell id="EtP6E1cX7hbLUe73JwAR-8" value="&lt;div style=&quot;background-color: rgb(255, 255, 255); font-family: Consolas, &amp;quot;Courier New&amp;quot;, monospace; font-size: 14px; line-height: 19px;&quot;&gt;archery&lt;span style=&quot;color: #0000ff;&quot;&gt;.&lt;/span&gt;&lt;span style=&quot;color: #795e26;&quot;&gt;action_image&lt;/span&gt;&lt;span style=&quot;color: #0000ff;&quot;&gt; &lt;/span&gt;=&lt;span style=&quot;color: #0000ff;&quot;&gt; &lt;/span&gt;&lt;span style=&quot;color: #098658;&quot;&gt;1&lt;/span&gt;&lt;span style=&quot;color: #0000ff;&quot;&gt;;&lt;/span&gt;&lt;/div&gt;" style="text;strokeColor=none;fillColor=none;align=left;verticalAlign=middle;spacingLeft=4;spacingRight=4;overflow=hidden;points=[[0,0.5],[1,0.5]];portConstraint=eastwest;rotatable=0;whiteSpace=wrap;html=1;" parent="EtP6E1cX7hbLUe73JwAR-4" vertex="1">
          <mxGeometry y="120" width="310" height="30" as="geometry" />
        </mxCell>
        <mxCell id="EtP6E1cX7hbLUe73JwAR-9" value="&lt;div style=&quot;background-color: rgb(255, 255, 255); font-family: Consolas, &amp;quot;Courier New&amp;quot;, monospace; font-size: 14px; line-height: 19px;&quot;&gt;&lt;div style=&quot;line-height: 19px;&quot;&gt;&lt;div style=&quot;line-height: 19px;&quot;&gt;AR_GAME_ARCHERY_UPDATE&lt;/div&gt;&lt;/div&gt;&lt;/div&gt;" style="swimlane;fontStyle=0;childLayout=stackLayout;horizontal=1;startSize=30;horizontalStack=0;resizeParent=1;resizeParentMax=0;resizeLast=0;collapsible=1;marginBottom=0;whiteSpace=wrap;html=1;" parent="1" vertex="1">
          <mxGeometry x="170" y="550" width="310" height="60" as="geometry" />
        </mxCell>
        <mxCell id="EtP6E1cX7hbLUe73JwAR-10" value="&lt;div style=&quot;background-color: rgb(255, 255, 255); font-family: Consolas, &amp;quot;Courier New&amp;quot;, monospace; font-size: 14px; line-height: 19px;&quot;&gt;&lt;div style=&quot;line-height: 19px;&quot;&gt;archery.&lt;span style=&quot;color: #001080;&quot;&gt;y&lt;/span&gt; = &lt;span style=&quot;color: #001080;&quot;&gt;archery_y&lt;/span&gt;;&lt;/div&gt;&lt;/div&gt;" style="text;strokeColor=none;fillColor=none;align=left;verticalAlign=middle;spacingLeft=4;spacingRight=4;overflow=hidden;points=[[0,0.5],[1,0.5]];portConstraint=eastwest;rotatable=0;whiteSpace=wrap;html=1;" parent="EtP6E1cX7hbLUe73JwAR-9" vertex="1">
          <mxGeometry y="30" width="310" height="30" as="geometry" />
        </mxCell>
        <mxCell id="EtP6E1cX7hbLUe73JwAR-11" value="&lt;div style=&quot;background-color: rgb(255, 255, 255); font-family: Consolas, &amp;quot;Courier New&amp;quot;, monospace; font-size: 14px; line-height: 19px;&quot;&gt;&lt;div style=&quot;line-height: 19px;&quot;&gt;&lt;div style=&quot;line-height: 19px;&quot;&gt;AR_GAME_ARCHERY_UP&lt;/div&gt;&lt;/div&gt;&lt;/div&gt;" style="swimlane;fontStyle=0;childLayout=stackLayout;horizontal=1;startSize=30;horizontalStack=0;resizeParent=1;resizeParentMax=0;resizeLast=0;collapsible=1;marginBottom=0;whiteSpace=wrap;html=1;" parent="1" vertex="1">
          <mxGeometry x="170" y="620" width="310" height="90" as="geometry" />
        </mxCell>
        <mxCell id="EtP6E1cX7hbLUe73JwAR-12" value="&lt;div style=&quot;background-color: rgb(255, 255, 255); font-family: Consolas, &amp;quot;Courier New&amp;quot;, monospace; font-size: 14px; line-height: 19px;&quot;&gt;&lt;div style=&quot;line-height: 19px;&quot;&gt;archery_y&lt;span style=&quot;color: #0000ff;&quot;&gt; &lt;/span&gt;-=&lt;span style=&quot;color: #0000ff;&quot;&gt; &lt;/span&gt;&lt;span style=&quot;color: #0000ff;&quot;&gt;STEP_ARCHERY_AXIS_Y&lt;/span&gt;&lt;span style=&quot;color: #0000ff;&quot;&gt;;&lt;/span&gt;&lt;/div&gt;&lt;/div&gt;" style="text;strokeColor=none;fillColor=none;align=left;verticalAlign=middle;spacingLeft=4;spacingRight=4;overflow=hidden;points=[[0,0.5],[1,0.5]];portConstraint=eastwest;rotatable=0;whiteSpace=wrap;html=1;" parent="EtP6E1cX7hbLUe73JwAR-11" vertex="1">
          <mxGeometry y="30" width="310" height="30" as="geometry" />
        </mxCell>
        <mxCell id="EtP6E1cX7hbLUe73JwAR-13" value="&lt;div style=&quot;background-color: rgb(255, 255, 255); font-family: Consolas, &amp;quot;Courier New&amp;quot;, monospace; font-size: 14px; line-height: 19px;&quot;&gt;&lt;div style=&quot;line-height: 19px;&quot;&gt;if&lt;span style=&quot;color: #0000ff;&quot;&gt; (&lt;/span&gt;&lt;span style=&quot;color: #001080;&quot;&gt;archery_y&lt;/span&gt;&lt;span style=&quot;color: #0000ff;&quot;&gt; &lt;/span&gt;==&lt;span style=&quot;color: #0000ff;&quot;&gt; &lt;/span&gt;&lt;span style=&quot;color: #098658;&quot;&gt;0&lt;/span&gt;&lt;span style=&quot;color: #0000ff;&quot;&gt;) {&lt;/span&gt;&lt;span style=&quot;color: #001080;&quot;&gt;archery_y&lt;/span&gt;&lt;span style=&quot;color: #0000ff;&quot;&gt; &lt;/span&gt;=&lt;span style=&quot;color: #0000ff;&quot;&gt; &lt;/span&gt;&lt;span style=&quot;color: #098658;&quot;&gt;10&lt;/span&gt;&lt;span style=&quot;color: #0000ff;&quot;&gt;;}&lt;/span&gt;&lt;/div&gt;&lt;/div&gt;" style="text;strokeColor=none;fillColor=none;align=left;verticalAlign=middle;spacingLeft=4;spacingRight=4;overflow=hidden;points=[[0,0.5],[1,0.5]];portConstraint=eastwest;rotatable=0;whiteSpace=wrap;html=1;" parent="EtP6E1cX7hbLUe73JwAR-11" vertex="1">
          <mxGeometry y="60" width="310" height="30" as="geometry" />
        </mxCell>
        <mxCell id="EtP6E1cX7hbLUe73JwAR-14" value="&lt;div style=&quot;background-color: rgb(255, 255, 255); font-family: Consolas, &amp;quot;Courier New&amp;quot;, monospace; font-size: 14px; line-height: 19px;&quot;&gt;&lt;div style=&quot;line-height: 19px;&quot;&gt;&lt;div style=&quot;line-height: 19px;&quot;&gt;AR_GAME_ARCHERY_DOWN&lt;/div&gt;&lt;/div&gt;&lt;/div&gt;" style="swimlane;fontStyle=0;childLayout=stackLayout;horizontal=1;startSize=30;horizontalStack=0;resizeParent=1;resizeParentMax=0;resizeLast=0;collapsible=1;marginBottom=0;whiteSpace=wrap;html=1;" parent="1" vertex="1">
          <mxGeometry x="170" y="720" width="310" height="90" as="geometry" />
        </mxCell>
        <mxCell id="EtP6E1cX7hbLUe73JwAR-15" value="&lt;div style=&quot;background-color: rgb(255, 255, 255); font-family: Consolas, &amp;quot;Courier New&amp;quot;, monospace; font-size: 14px; line-height: 19px;&quot;&gt;&lt;div style=&quot;line-height: 19px;&quot;&gt;archery_y&lt;span style=&quot;color: #0000ff;&quot;&gt; &lt;/span&gt;+=&lt;span style=&quot;color: #0000ff;&quot;&gt; &lt;/span&gt;&lt;span style=&quot;color: #0000ff;&quot;&gt;STEP_ARCHERY_AXIS_Y&lt;/span&gt;&lt;span style=&quot;color: #0000ff;&quot;&gt;;&lt;/span&gt;&lt;/div&gt;&lt;/div&gt;" style="text;strokeColor=none;fillColor=none;align=left;verticalAlign=middle;spacingLeft=4;spacingRight=4;overflow=hidden;points=[[0,0.5],[1,0.5]];portConstraint=eastwest;rotatable=0;whiteSpace=wrap;html=1;" parent="EtP6E1cX7hbLUe73JwAR-14" vertex="1">
          <mxGeometry y="30" width="310" height="30" as="geometry" />
        </mxCell>
        <mxCell id="EtP6E1cX7hbLUe73JwAR-16" value="&lt;div style=&quot;background-color: rgb(255, 255, 255); font-family: Consolas, &amp;quot;Courier New&amp;quot;, monospace; font-size: 14px; line-height: 19px;&quot;&gt;&lt;div style=&quot;line-height: 19px;&quot;&gt;if&lt;span style=&quot;color: #0000ff;&quot;&gt; (&lt;/span&gt;&lt;span style=&quot;color: #001080;&quot;&gt;archery_y&lt;/span&gt;&lt;span style=&quot;color: #0000ff;&quot;&gt; &lt;/span&gt;&amp;gt;&lt;span style=&quot;color: #0000ff;&quot;&gt; &lt;/span&gt;&lt;span style=&quot;color: #098658;&quot;&gt;50&lt;/span&gt;&lt;span style=&quot;color: #0000ff;&quot;&gt;) {&lt;/span&gt;&lt;span style=&quot;color: #001080;&quot;&gt;archery_y&lt;/span&gt;&lt;span style=&quot;color: #0000ff;&quot;&gt; &lt;/span&gt;=&lt;span style=&quot;color: #0000ff;&quot;&gt; &lt;/span&gt;&lt;span style=&quot;color: #098658;&quot;&gt;50&lt;/span&gt;&lt;span style=&quot;color: #0000ff;&quot;&gt;;}&lt;/span&gt;&lt;/div&gt;&lt;/div&gt;" style="text;strokeColor=none;fillColor=none;align=left;verticalAlign=middle;spacingLeft=4;spacingRight=4;overflow=hidden;points=[[0,0.5],[1,0.5]];portConstraint=eastwest;rotatable=0;whiteSpace=wrap;html=1;" parent="EtP6E1cX7hbLUe73JwAR-14" vertex="1">
          <mxGeometry y="60" width="310" height="30" as="geometry" />
        </mxCell>
        <mxCell id="EtP6E1cX7hbLUe73JwAR-17" value="&lt;div style=&quot;background-color: rgb(255, 255, 255); font-family: Consolas, &amp;quot;Courier New&amp;quot;, monospace; font-size: 14px; line-height: 19px;&quot;&gt;&lt;div style=&quot;line-height: 19px;&quot;&gt;&lt;div style=&quot;line-height: 19px;&quot;&gt;&lt;div style=&quot;line-height: 19px;&quot;&gt;AR_GAME_ARCHERY_RESET&lt;/div&gt;&lt;/div&gt;&lt;/div&gt;&lt;/div&gt;" style="swimlane;fontStyle=0;childLayout=stackLayout;horizontal=1;startSize=30;horizontalStack=0;resizeParent=1;resizeParentMax=0;resizeLast=0;collapsible=1;marginBottom=0;whiteSpace=wrap;html=1;" parent="1" vertex="1">
          <mxGeometry x="170" y="820" width="310" height="150" as="geometry" />
        </mxCell>
        <mxCell id="EtP6E1cX7hbLUe73JwAR-18" value="&lt;div style=&quot;background-color: rgb(255, 255, 255); font-family: Consolas, &amp;quot;Courier New&amp;quot;, monospace; font-size: 14px; line-height: 19px;&quot;&gt;&lt;div style=&quot;line-height: 19px;&quot;&gt;archery&lt;span style=&quot;color: #0000ff;&quot;&gt;.&lt;/span&gt;&lt;span style=&quot;color: #001080;&quot;&gt;x&lt;/span&gt;&lt;span style=&quot;color: #0000ff;&quot;&gt; &lt;/span&gt;=&lt;span style=&quot;color: #0000ff;&quot;&gt; &lt;/span&gt;&lt;span style=&quot;color: #0000ff;&quot;&gt;AXIS_X_ARCHERY&lt;/span&gt;&lt;span style=&quot;color: #0000ff;&quot;&gt;;&lt;/span&gt;&lt;/div&gt;&lt;/div&gt;" style="text;strokeColor=none;fillColor=none;align=left;verticalAlign=middle;spacingLeft=4;spacingRight=4;overflow=hidden;points=[[0,0.5],[1,0.5]];portConstraint=eastwest;rotatable=0;whiteSpace=wrap;html=1;" parent="EtP6E1cX7hbLUe73JwAR-17" vertex="1">
          <mxGeometry y="30" width="310" height="30" as="geometry" />
        </mxCell>
        <mxCell id="EtP6E1cX7hbLUe73JwAR-19" value="&lt;div style=&quot;background-color: rgb(255, 255, 255); font-family: Consolas, &amp;quot;Courier New&amp;quot;, monospace; font-size: 14px; line-height: 19px;&quot;&gt;&lt;div style=&quot;line-height: 19px;&quot;&gt;archery&lt;span style=&quot;color: #0000ff;&quot;&gt;.&lt;/span&gt;&lt;span style=&quot;color: #001080;&quot;&gt;y&lt;/span&gt;&lt;span style=&quot;color: #0000ff;&quot;&gt; &lt;/span&gt;=&lt;span style=&quot;color: #0000ff;&quot;&gt; &lt;/span&gt;&lt;span style=&quot;color: #0000ff;&quot;&gt;AXIS_Y_ARCHERY&lt;/span&gt;&lt;span style=&quot;color: #0000ff;&quot;&gt;;&lt;/span&gt;&lt;/div&gt;&lt;/div&gt;" style="text;strokeColor=none;fillColor=none;align=left;verticalAlign=middle;spacingLeft=4;spacingRight=4;overflow=hidden;points=[[0,0.5],[1,0.5]];portConstraint=eastwest;rotatable=0;whiteSpace=wrap;html=1;" parent="EtP6E1cX7hbLUe73JwAR-17" vertex="1">
          <mxGeometry y="60" width="310" height="30" as="geometry" />
        </mxCell>
        <mxCell id="EtP6E1cX7hbLUe73JwAR-20" value="&lt;div style=&quot;background-color: rgb(255, 255, 255); font-family: Consolas, &amp;quot;Courier New&amp;quot;, monospace; font-size: 14px; line-height: 19px;&quot;&gt;&lt;div style=&quot;line-height: 19px;&quot;&gt;&lt;div style=&quot;line-height: 19px;&quot;&gt;archery&lt;span style=&quot;color: #0000ff;&quot;&gt;.&lt;/span&gt;&lt;span style=&quot;color: #001080;&quot;&gt;visible&lt;/span&gt;&lt;span style=&quot;color: #0000ff;&quot;&gt; &lt;/span&gt;=&lt;span style=&quot;color: #0000ff;&quot;&gt; &lt;/span&gt;&lt;span style=&quot;color: #0000ff;&quot;&gt;BLACK&lt;/span&gt;&lt;span style=&quot;color: #0000ff;&quot;&gt;;&lt;/span&gt;&lt;/div&gt;&lt;/div&gt;&lt;/div&gt;" style="text;strokeColor=none;fillColor=none;align=left;verticalAlign=middle;spacingLeft=4;spacingRight=4;overflow=hidden;points=[[0,0.5],[1,0.5]];portConstraint=eastwest;rotatable=0;whiteSpace=wrap;html=1;" parent="EtP6E1cX7hbLUe73JwAR-17" vertex="1">
          <mxGeometry y="90" width="310" height="30" as="geometry" />
        </mxCell>
        <mxCell id="EtP6E1cX7hbLUe73JwAR-21" value="&lt;div style=&quot;background-color: rgb(255, 255, 255); font-family: Consolas, &amp;quot;Courier New&amp;quot;, monospace; font-size: 14px; line-height: 19px;&quot;&gt;&lt;div style=&quot;line-height: 19px;&quot;&gt;archery_y&lt;span style=&quot;color: #0000ff;&quot;&gt; &lt;/span&gt;=&lt;span style=&quot;color: #0000ff;&quot;&gt; &lt;/span&gt;&lt;span style=&quot;color: #0000ff;&quot;&gt;AXIS_Y_ARCHERY&lt;/span&gt;&lt;span style=&quot;color: #0000ff;&quot;&gt;;&lt;/span&gt;&lt;/div&gt;&lt;/div&gt;" style="text;strokeColor=none;fillColor=none;align=left;verticalAlign=middle;spacingLeft=4;spacingRight=4;overflow=hidden;points=[[0,0.5],[1,0.5]];portConstraint=eastwest;rotatable=0;whiteSpace=wrap;html=1;" parent="EtP6E1cX7hbLUe73JwAR-17" vertex="1">
          <mxGeometry y="120" width="310" height="30" as="geometry" />
        </mxCell>
        <mxCell id="EtP6E1cX7hbLUe73JwAR-22" value="" style="edgeStyle=orthogonalEdgeStyle;rounded=0;orthogonalLoop=1;jettySize=auto;html=1;" parent="1" source="EtP6E1cX7hbLUe73JwAR-23" target="EtP6E1cX7hbLUe73JwAR-2" edge="1">
          <mxGeometry relative="1" as="geometry" />
        </mxCell>
        <mxCell id="EtP6E1cX7hbLUe73JwAR-23" value="&lt;div style=&quot;background-color: rgb(255, 255, 255); font-family: Consolas, &amp;quot;Courier New&amp;quot;, monospace; font-size: 14px; line-height: 19px;&quot;&gt;task_post_pure_msg(&lt;/div&gt;&lt;div style=&quot;background-color: rgb(255, 255, 255); font-family: Consolas, &amp;quot;Courier New&amp;quot;, monospace; font-size: 14px; line-height: 19px;&quot;&gt;&lt;span style=&quot;color: #0070c1;&quot;&gt;AR_GAME_ARCHERY_ID&lt;/span&gt;,&amp;nbsp;&lt;/div&gt;&lt;div style=&quot;background-color: rgb(255, 255, 255); font-family: Consolas, &amp;quot;Courier New&amp;quot;, monospace; font-size: 14px; line-height: 19px;&quot;&gt;ak_msg_t* msg)&lt;/div&gt;" style="rhombus;whiteSpace=wrap;html=1;" parent="1" vertex="1">
          <mxGeometry x="265" y="40" width="260" height="200" as="geometry" />
        </mxCell>
      </root>
    </mxGraphModel>
  </diagram>
</mxfile>
